<svg width="14.000000" height="14.000000" viewBox="0 0 14 14" fill="none" xmlns="http://www.w3.org/2000/svg" xmlns:xlink="http://www.w3.org/1999/xlink">
	<desc>
			Created with Pixso.
	</desc>
	<defs/>
	<path id="Shape" d="M13.993 1.3999C13.993 0.629883 13.37 0 12.6 0L1.40002 0C0.630005 0 0 0.629883 0 1.3999L0 9.80005C0 10.5701 0.630005 11.2 1.40002 11.2L11.2 11.2L14 14L13.993 1.3999ZM2.79999 4.19995L11.2 4.19995L11.2 2.80005L2.79999 2.80005L2.79999 4.19995ZM11.2 6.30005L2.79999 6.30005L2.79999 4.8999L11.2 4.8999L11.2 6.30005ZM2.79999 8.3999L11.2 8.3999L11.2 7L2.79999 7L2.79999 8.3999Z" clip-rule="evenodd" fill="#FFFFFF" fill-opacity="1.000000" fill-rule="evenodd"/>
</svg>
