<svg width="170.000000" height="64.000000" viewBox="0 0 170 64" fill="none" xmlns="http://www.w3.org/2000/svg" xmlns:xlink="http://www.w3.org/1999/xlink">
	<desc>
			Created with Pixso.
	</desc>
	<defs/>
	<path id="Shape" d="M165.563 18.1084C167.053 20.0264 168.113 22.2261 168.874 24.6572L168.924 24.5908C169.57 27.0386 170 29.6846 170 32.5288C170 35.3901 169.669 38.0361 168.941 40.4668C168.179 42.8979 167.12 45.1309 165.63 46.9165C164.123 48.7192 162.319 50.1909 160.084 51.2495C158.594 51.8945 156.988 52.4238 155.283 52.6387C155.283 52.6387 152.088 53.1514 148.364 52.4238C147.089 52.1924 145.914 51.8945 144.838 51.3652C144.738 51.3652 144.738 51.2495 144.606 51.2495C144.606 51.1504 144.506 51.1504 144.506 51.1504L144.424 51.1504C143.762 50.8359 143.232 50.522 142.603 50.0918C141.196 49.1328 140.037 48.0908 138.961 46.8174C137.587 44.9985 136.411 42.7988 135.65 40.3677C134.905 37.937 134.574 35.2905 134.574 32.4297C134.574 29.6846 134.905 26.9395 135.633 24.5249C136.395 21.978 137.454 19.8779 138.944 17.9595C140.434 16.1733 142.255 14.6851 144.407 13.6265C146.394 12.7002 148.645 12.1548 151.194 12.0391C152.916 11.9399 154.406 12.0391 155.565 12.2373L157.137 12.5684C157.137 12.6841 157.253 12.6841 157.336 12.6841C157.452 12.7998 157.568 12.7998 157.667 12.7998C157.882 12.7998 158.114 12.9321 158.114 12.9321C158.743 13.0972 159.488 13.4282 160.101 13.7588C162.253 14.8008 164.074 16.1899 165.563 18.1084ZM143.927 26.9722C144.357 25.3184 144.887 23.7144 145.632 22.4409C146.377 21.1841 147.337 20.126 148.397 19.3979C149.473 18.6538 150.747 18.2407 152.121 18.2407C153.512 18.2407 154.687 18.5381 155.763 19.2822C156.823 20.0103 157.667 20.936 158.412 22.127C159.157 23.4004 159.703 24.7729 160.117 26.4595C160.564 28.1465 160.779 29.8501 160.779 31.752L160.779 32.3804C160.779 34.2817 160.564 36.1836 160.25 37.8706C159.819 39.5742 159.289 41.0459 158.544 42.3359C157.799 43.5928 156.839 44.5352 155.763 45.2793C154.704 46.0234 153.446 46.3379 152.039 46.3379C150.648 46.3379 149.39 46.0073 148.314 45.2793C147.238 44.5352 146.278 43.5928 145.533 42.3027C144.771 41.0459 144.242 39.5742 143.811 37.8706C143.397 36.1836 143.281 34.2817 143.281 32.3804C143.397 30.561 143.613 28.6758 143.944 26.9888L143.927 26.9722ZM120.569 53.0024L116.43 57.749L116 58.1787L116.43 64L122.82 64L129.541 56.4917L129.541 32.6118L129.343 30.7925L120.569 35.3237L120.569 53.0024Z" clip-rule="evenodd" fill="#FFFFFF" fill-opacity="1.000000" fill-rule="evenodd"/>
	<path id="Shape" d="M66.696 10.8613L62.5476 6.24854L62 5.85596L62.4314 0L68.8199 0.0981445L75.6896 7.52441L75.6896 31.6841L75.4905 33.0254L66.696 28.4453L66.696 10.8613ZM128.888 23.8325C128.125 21.4282 127.063 19.2524 125.57 17.355C124.076 15.4575 122.251 14.0835 120.094 13.0532C119.48 12.7261 118.733 12.3989 118.102 12.2354C118.102 12.2354 117.87 12.1045 117.654 12.1045C117.555 12.1045 117.455 12.1045 117.323 11.9897C117.24 11.9897 117.123 11.9897 117.123 11.8755L115.547 11.5483C114.386 11.3521 112.892 11.2539 111.166 11.3521C108.611 11.4663 106.354 12.0063 104.363 12.9224C102.206 13.9692 100.381 15.4414 98.8873 17.208C97.3939 19.1055 96.3319 21.1826 95.5686 23.7017C94.8385 26.0898 94.5232 28.8052 94.5232 31.5205C94.5232 34.3506 94.855 36.9678 95.5852 39.3721C96.3484 41.7769 97.5266 43.9521 98.9039 45.7515C99.9824 47.0112 101.161 48.0415 102.554 48.9902C103.185 49.4155 103.716 49.7266 104.38 50.0371L104.463 50.0371C104.463 50.0371 104.579 50.0371 104.579 50.1353C104.678 50.1353 104.678 50.25 104.795 50.25C105.857 50.7734 107.035 51.0679 108.312 51.2969C112.046 52.0166 115.248 51.5093 115.248 51.5093C116.958 51.2969 118.567 50.7734 120.061 50.1353C122.301 49.0884 124.126 47.6328 125.619 45.8496C127.113 44.083 128.175 41.875 128.938 39.4702C129.668 37.0659 130 34.4487 130 31.6187C130 28.8052 129.668 26.188 128.921 23.7671L128.888 23.8325ZM80.4685 11.5156L89.429 11.5156L89.429 52L80.4685 52L80.4685 11.5156ZM105.691 21.6406C104.944 22.9004 104.413 24.4868 103.998 26.1226L104.015 26.1392C103.583 27.8076 103.467 29.6724 103.351 31.4717C103.351 33.3525 103.45 35.2339 103.882 36.9023C104.313 38.5869 104.844 40.043 105.591 41.2861C106.338 42.562 107.3 43.4941 108.362 44.2305C109.441 44.9502 110.718 45.2773 112.129 45.2773C113.506 45.2773 114.8 44.9663 115.862 44.2305C116.924 43.4941 117.887 42.562 118.617 41.3188C119.364 40.043 119.911 38.5869 120.326 36.9023C120.658 35.2339 120.89 33.3525 120.89 31.4717L120.89 30.8501C120.89 28.9688 120.658 27.2842 120.226 25.6157C119.795 23.9473 119.264 22.5894 118.517 21.3301C117.771 20.1523 116.908 19.2363 115.862 18.5166C114.784 17.7803 113.606 17.4858 112.212 17.4858C110.801 17.4858 109.54 17.895 108.478 18.6309C107.4 19.3506 106.437 20.3975 105.691 21.6406Z" clip-rule="evenodd" fill="#FFFFFF" fill-opacity="1.000000" fill-rule="evenodd"/>
	<path id="Shape" d="M84.8743 2C82.5969 2 80.7486 3.86816 80.7486 6.16992C80.7486 8.58838 82.5969 10.4399 84.8743 10.3398C87.1517 10.3398 89 8.47168 89 6.16992C89 3.86816 87.1517 2 84.8743 2ZM30.8934 18.9966C32.3786 20.9312 33.4348 23.1494 34.194 25.6016L34.227 25.5347C34.9696 28.0034 35.2997 30.6719 35.2997 33.541C35.2997 36.4263 34.9696 39.0952 34.2435 41.5469C33.4843 43.999 32.4281 46.2505 30.9429 48.0522C29.4576 49.8701 27.6423 51.3545 25.4144 52.4219C23.9292 53.0728 22.3284 53.6064 20.6286 53.8232C20.6286 53.8232 17.4435 54.3403 13.7304 53.6064C12.4597 53.3726 11.288 53.0728 10.2153 52.5386C10.1163 52.5386 10.1163 52.5386 10.0172 52.4219C10.0172 52.3218 9.90172 52.3218 9.90172 52.3218L9.81921 52.3218C9.15909 52.0049 8.631 51.688 8.00389 51.2544C6.61765 50.2871 5.44595 49.2363 4.37326 47.9521C2.888 46.1172 1.83182 43.999 1.07269 41.4468C0.330063 38.9951 0 36.3262 0 33.4409C0 30.6719 0.330063 27.9033 1.05618 25.4678C1.81532 22.8994 2.87151 20.7812 4.35677 18.8462C5.84201 17.0449 7.65733 15.5439 9.8027 14.4761C11.7831 13.542 14.0274 12.9917 16.5689 12.875C18.2852 12.7749 19.7704 12.875 20.9256 13.0752L22.4934 13.4087C22.4934 13.5254 22.6089 13.5254 22.6915 13.5254C22.8235 13.6421 22.9225 13.6421 23.0215 13.6421C23.2361 13.6421 23.4671 13.7759 23.4671 13.7759C24.0942 13.9424 24.8368 14.2759 25.4474 14.6099C27.5928 15.6606 29.4081 17.0615 30.8934 18.9966ZM71.1769 18.9966C72.6622 20.9312 73.7183 23.1494 74.4775 25.6016L74.527 25.5347C75.1706 28.0034 75.5832 30.6719 75.5832 33.541C75.5832 36.4263 75.2696 39.0952 74.5435 41.5469C73.7843 43.999 72.7282 46.2505 71.2429 48.0522C69.7411 49.8701 67.9423 51.3545 65.7144 52.4219C64.2292 53.0728 62.6284 53.6064 60.9286 53.8232C60.9286 53.8232 57.7436 54.3403 54.0304 53.6064C52.7432 53.3726 51.588 53.0728 50.5153 52.5386C50.4163 52.5386 50.4163 52.4219 50.2843 52.4219C50.2843 52.3218 50.1852 52.3218 50.1852 52.3218C50.1852 52.3218 48.9145 51.688 48.2874 51.2544C46.8847 50.2871 45.7295 49.2363 44.6568 47.9521C43.2705 46.1172 42.1153 43.8989 41.3562 41.4468C40.6136 38.9951 40.2835 36.3262 40.2835 33.4409C40.2835 30.6719 40.6136 27.9033 41.3397 25.4678C42.0988 22.8994 43.155 20.7812 44.6403 18.8462C46.1255 17.0449 47.9409 15.5439 50.0862 14.4761C52.0666 13.542 54.311 12.9917 56.8524 12.875C58.5522 12.7749 60.0375 12.875 61.1927 13.0752L62.7769 13.4087C62.7769 13.5254 62.8759 13.5254 62.975 13.5254C63.0905 13.6421 63.206 13.6421 63.305 13.6421C63.5196 13.6421 63.7506 13.7759 63.7506 13.7759C64.3777 13.9424 65.1203 14.2759 65.731 14.6099C67.8763 15.6606 69.6916 17.0615 71.1769 18.9966ZM9.43965 27.9365C9.85222 26.2686 10.3803 24.6509 11.1229 23.3662C11.8656 22.0986 12.8227 21.0312 13.8954 20.2974C14.9516 19.5469 16.2058 19.1299 17.6086 19.1299C18.9948 19.1299 20.1665 19.4302 21.2392 20.1807C22.2789 20.9146 23.137 21.8486 23.8797 23.0493C24.6223 24.334 25.1504 25.7183 25.5795 27.4194C26.0085 29.1206 26.2396 30.8389 26.2396 32.7568L26.2066 33.3906C26.2066 35.3091 26.0085 37.2271 25.6785 38.9282C25.2659 40.6465 24.7213 42.1309 23.9787 43.4316C23.2525 44.6992 22.2954 45.6504 21.2392 46.4009C20.183 47.1514 18.8958 47.4683 17.526 47.4683C16.1233 47.4683 14.8526 47.1348 13.7799 46.4009C12.7237 45.6504 11.7666 44.6992 11.0239 43.3984C10.3638 42.3477 9.86871 40.8633 9.42314 39.062C8.99406 37.3438 8.87854 35.3921 8.87854 33.4907C8.87854 31.5728 8.99406 29.6548 9.40665 27.9531L9.43965 27.9365ZM49.6076 27.9365C50.0367 26.2686 50.5648 24.6509 51.3074 23.3662C52.0501 22.0986 53.0072 21.0312 54.0634 20.2974C55.1361 19.5469 56.4068 19.1299 57.7766 19.1299C59.1628 19.1299 60.3345 19.4302 61.4072 20.1807C62.4634 20.9146 63.305 21.8486 64.0477 23.0493C64.7903 24.334 65.3184 25.7183 65.7475 27.4194C66.193 29.1206 66.4076 30.8389 66.4076 32.7568L66.4076 33.3906C66.4076 35.3091 66.193 37.2271 65.8795 38.9282C65.4504 40.6465 64.9223 42.1309 64.1797 43.4316C63.437 44.6992 62.4799 45.6504 61.4072 46.4009C60.351 47.1514 59.0968 47.4683 57.694 47.4683C56.3078 47.4683 55.0536 47.1348 53.9809 46.4009C52.9082 45.6504 51.951 44.6992 51.2084 43.3984C50.4493 42.1309 49.9212 40.6465 49.4921 38.9282C49.0795 37.2271 48.964 35.3091 48.964 33.3906C49.0795 31.5562 49.2941 29.6548 49.6241 27.9531L49.6076 27.9365Z" clip-rule="evenodd" fill="#FFFFFF" fill-opacity="1.000000" fill-rule="evenodd"/>
</svg>
