<svg width="82.000000" height="31.000000" viewBox="0 0 82 31" fill="none" xmlns="http://www.w3.org/2000/svg" xmlns:xlink="http://www.w3.org/1999/xlink">
	<desc>
			Created with Pixso.
	</desc>
	<defs/>
	<path id="Shape" d="M79.8639 8.93664C80.5812 9.85893 81.0914 10.9164 81.458 12.0851L81.4819 12.0533C81.7928 13.2301 82 14.5022 82 15.8697C82 17.2452 81.8406 18.5173 81.4899 19.6861C81.1232 20.8548 80.6131 21.9282 79.8958 22.7869C79.1704 23.6535 78.3017 24.3611 77.2256 24.87C76.5083 25.18 75.7351 25.4345 74.9142 25.5378C74.9142 25.5378 73.3758 25.7843 71.5825 25.4345C70.9687 25.3232 70.4028 25.18 69.8847 24.9256C69.8369 24.9256 69.8369 24.87 69.7731 24.87C69.7731 24.8223 69.7253 24.8223 69.7253 24.8223L69.6855 24.8223C69.3666 24.6712 69.1116 24.5201 68.8087 24.3134C68.1312 23.8523 67.5733 23.3514 67.0552 22.7392C66.3936 21.8646 65.8277 20.8071 65.4611 19.6384C65.1024 18.4696 64.943 17.1975 64.943 15.822C64.943 14.5022 65.1024 13.1824 65.4531 12.0215C65.8197 10.7971 66.3299 9.78738 67.0472 8.86509C67.7646 8.0064 68.6413 7.29084 69.6775 6.78199C70.634 6.33675 71.718 6.07437 72.9454 6.01871C73.7744 5.97101 74.4917 6.01871 75.0497 6.11412L75.8069 6.27314C75.8069 6.32879 75.8627 6.32879 75.9025 6.32879C75.9583 6.38445 76.0141 6.38445 76.0619 6.38445C76.1655 6.38445 76.2771 6.44806 76.2771 6.44806C76.58 6.52757 76.9387 6.68658 77.2336 6.84559C78.2698 7.34649 79.1465 8.01435 79.8639 8.93664ZM69.4464 13.1982C69.6536 12.4032 69.9086 11.632 70.2673 11.0197C70.626 10.4155 71.0883 9.90664 71.5984 9.5568C72.1165 9.19902 72.7302 9.00025 73.3918 9.00025C74.0613 9.00025 74.6272 9.14336 75.1453 9.50115C75.6554 9.85098 76.0619 10.2962 76.4206 10.8687C76.7793 11.4809 77.0423 12.1408 77.2416 12.9518C77.4568 13.7628 77.5604 14.5817 77.5604 15.496L77.5604 15.7981C77.5604 16.7125 77.4568 17.6268 77.3053 18.4378C77.0981 19.2567 76.843 19.9643 76.4844 20.5845C76.1257 21.1888 75.6634 21.642 75.1453 21.9997C74.6352 22.3575 74.0294 22.5086 73.3519 22.5086C72.6824 22.5086 72.0766 22.3496 71.5585 21.9997C71.0405 21.642 70.5782 21.1888 70.2195 20.5686C69.8528 19.9643 69.5978 19.2567 69.3906 18.4378C69.1913 17.6268 69.1355 16.7125 69.1355 15.7981C69.1913 14.9236 69.2949 14.0172 69.4543 13.2062L69.4464 13.1982ZM58.1999 25.7127L56.2072 27.9946L56 28.2013L56.2072 31L59.2839 31L62.5199 27.3904L62.5199 15.9095L62.4243 15.0349L58.1999 17.2134L58.1999 25.7127Z" clip-rule="evenodd" fill="#FFFFFF" fill-opacity="1.000000" fill-rule="evenodd"/>
	<path id="Shape" d="M32.2789 5.22177L30.2657 3.00409L30 2.81535L30.2094 0L33.3097 0.047184L36.6435 3.61749L36.6435 15.2328L36.5468 15.8776L32.2789 13.6757L32.2789 5.22177ZM62.4605 11.458C62.09 10.302 61.5747 9.25606 60.8499 8.34382C60.1252 7.43158 59.2394 6.771 58.1925 6.27556C57.8946 6.11827 57.5322 5.96099 57.2262 5.88235C57.2262 5.88235 57.1135 5.81944 57.0088 5.81944C56.9605 5.81944 56.9122 5.81944 56.8477 5.76439C56.8075 5.76439 56.7511 5.76439 56.7511 5.70934L55.9861 5.55206C55.4224 5.45769 54.6977 5.41051 53.8602 5.45769C52.6201 5.51274 51.5249 5.77225 50.5586 6.21265C49.5117 6.71595 48.6259 7.42372 47.9012 8.27304C47.1764 9.18528 46.6611 10.184 46.2906 11.3951C45.9363 12.5433 45.7833 13.8487 45.7833 15.1541C45.7833 16.5146 45.9444 17.7729 46.2987 18.9289C46.6691 20.0849 47.2408 21.1309 47.9092 21.9959C48.4326 22.6014 49.0044 23.0969 49.6808 23.553C49.9868 23.7575 50.2445 23.9069 50.5666 24.0563L50.6069 24.0563C50.6069 24.0563 50.6633 24.0563 50.6633 24.1035C50.7116 24.1035 50.7116 24.1585 50.7679 24.1585C51.2833 24.4102 51.8551 24.5517 52.4751 24.6618C54.287 25.0079 55.8411 24.7641 55.8411 24.7641C56.6706 24.6618 57.4517 24.4102 58.1764 24.1035C59.2635 23.6002 60.1493 22.9003 60.8741 22.0431C61.5988 21.1938 62.1142 20.1321 62.4846 18.9761C62.8389 17.8201 63 16.5618 63 15.2013C63 13.8487 62.8389 12.5904 62.4766 11.4266L62.4605 11.458ZM38.9627 5.53633L43.3111 5.53633L43.3111 25L38.9627 25L38.9627 5.53633ZM51.2028 10.4042C50.8404 11.0098 50.5827 11.7726 50.3814 12.559L50.3895 12.5668C50.1801 13.369 50.1237 14.2655 50.0674 15.1305C50.0674 16.0349 50.1157 16.9393 50.325 17.7414C50.5344 18.5514 50.7921 19.2513 51.1545 19.849C51.5168 20.4624 51.9839 20.9107 52.4993 21.2645C53.0227 21.6106 53.6428 21.7679 54.3272 21.7679C54.9956 21.7679 55.6237 21.6184 56.1391 21.2645C56.6545 20.9107 57.1215 20.4624 57.4758 19.8647C57.8382 19.2513 58.104 18.5514 58.3053 17.7414C58.4663 16.9393 58.5791 16.0349 58.5791 15.1305L58.5791 14.8317C58.5791 13.9273 58.4663 13.1173 58.257 12.3152C58.0476 11.5131 57.7899 10.8603 57.4275 10.2548C57.0652 9.68858 56.6464 9.24819 56.1391 8.90217C55.6157 8.54829 55.0439 8.40673 54.3675 8.40673C53.683 8.40673 53.071 8.60333 52.5556 8.95722C52.0322 9.30324 51.5652 9.80654 51.2028 10.4042Z" clip-rule="evenodd" fill="#FFFFFF" fill-opacity="1.000000" fill-rule="evenodd"/>
	<path id="Shape" d="M41.0067 1C39.9064 1 39.0134 1.89812 39.0134 3.00475C39.0134 4.1675 39.9064 5.0576 41.0067 5.00949C42.107 5.00949 43 4.11136 43 3.00475C43 1.89812 42.107 1 41.0067 1ZM14.926 9.17133C15.6436 10.1015 16.1539 11.1681 16.5207 12.3468L16.5366 12.3148C16.8954 13.5016 17.0549 14.7846 17.0549 16.1639C17.0549 17.5512 16.8954 18.8342 16.5446 20.013C16.1778 21.1918 15.6675 22.2743 14.9499 23.1404C14.2323 24.0145 13.3553 24.7281 12.2789 25.2414C11.5613 25.5541 10.7879 25.8107 9.96663 25.915C9.96663 25.915 8.42778 26.1635 6.63379 25.8107C6.01984 25.6984 5.45374 25.5541 4.93547 25.2975C4.88763 25.2975 4.88763 25.2975 4.8398 25.2414C4.8398 25.1932 4.78398 25.1932 4.78398 25.1932L4.74411 25.1932C4.42519 25.0409 4.17003 24.8885 3.86705 24.68C3.1973 24.2149 2.6312 23.7097 2.11293 23.0923C1.39532 22.2102 0.88504 21.1918 0.518265 19.9649C0.15947 18.7861 0 17.5031 0 16.1158C0 14.7846 0.15947 13.4535 0.510284 12.2827C0.87706 11.0478 1.38736 10.0294 2.10495 9.09916C2.82254 8.23312 3.69962 7.51141 4.73615 6.99819C5.69293 6.54913 6.7773 6.2845 8.00519 6.22837C8.83441 6.18026 9.55202 6.22837 10.1101 6.3246L10.8676 6.48498C10.8676 6.54111 10.9234 6.54111 10.9633 6.54111C11.0271 6.59724 11.0749 6.59724 11.1228 6.59724C11.2264 6.59724 11.338 6.6614 11.338 6.6614C11.641 6.74158 11.9998 6.90197 12.2948 7.06234C13.3314 7.56754 14.2084 8.24113 14.926 9.17133ZM34.3888 9.17133C35.1064 10.1015 35.6167 11.1681 35.9835 12.3468L36.0074 12.3148C36.3184 13.5016 36.5177 14.7846 36.5177 16.1639C36.5177 17.5512 36.3662 18.8342 36.0154 20.013C35.6486 21.1918 35.1383 22.2743 34.4207 23.1404C33.6952 24.0145 32.8261 24.7281 31.7497 25.2414C31.0321 25.5541 30.2587 25.8107 29.4374 25.915C29.4374 25.915 27.8986 26.1635 26.1046 25.8107C25.4827 25.6984 24.9245 25.5541 24.4063 25.2975C24.3584 25.2975 24.3584 25.2414 24.2946 25.2414C24.2946 25.1932 24.2468 25.1932 24.2468 25.1932C24.2468 25.1932 23.6329 24.8885 23.3299 24.68C22.6521 24.2149 22.094 23.7097 21.5757 23.0923C20.906 22.2102 20.3479 21.1437 19.9811 19.9649C19.6223 18.7861 19.4628 17.5031 19.4628 16.1158C19.4628 14.7846 19.6223 13.4535 19.9731 12.2827C20.3399 11.0478 20.8502 10.0294 21.5678 9.09916C22.2854 8.23312 23.1624 7.51141 24.199 6.99819C25.1558 6.54913 26.2401 6.2845 27.468 6.22837C28.2893 6.18026 29.0069 6.22837 29.565 6.3246L30.3304 6.48498C30.3304 6.54111 30.3783 6.54111 30.4261 6.54111C30.4819 6.59724 30.5377 6.59724 30.5856 6.59724C30.6892 6.59724 30.8009 6.6614 30.8009 6.6614C31.1038 6.74158 31.4626 6.90197 31.7576 7.06234C32.7942 7.56754 33.6712 8.24113 34.3888 9.17133ZM4.56073 13.4695C4.76006 12.6676 5.0152 11.8898 5.37401 11.2723C5.7328 10.6629 6.19525 10.1497 6.71352 9.79681C7.22382 9.43596 7.82977 9.23549 8.50751 9.23549C9.17726 9.23549 9.74338 9.37983 10.2616 9.74068C10.7639 10.0935 11.1786 10.5426 11.5374 11.1199C11.8962 11.7374 12.1513 12.403 12.3586 13.2209C12.5659 14.0389 12.6776 14.8648 12.6776 15.787L12.6616 16.0917C12.6616 17.0139 12.5659 17.9361 12.4064 18.754C12.2071 19.58 11.944 20.2937 11.5852 20.9191C11.2344 21.5286 10.7719 21.9857 10.2616 22.3465C9.75134 22.7074 9.12943 22.8597 8.46765 22.8597C7.78992 22.8597 7.17596 22.6993 6.6577 22.3465C6.14742 21.9857 5.68497 21.5286 5.32616 20.9031C5.00723 20.3979 4.76804 19.6842 4.55275 18.8182C4.34544 17.9922 4.28964 17.054 4.28964 16.1398C4.28964 15.2176 4.34544 14.2955 4.54478 13.4775L4.56073 13.4695ZM23.9677 13.4695C24.175 12.6676 24.4302 11.8898 24.789 11.2723C25.1478 10.6629 25.6102 10.1497 26.1205 9.79681C26.6388 9.43596 27.2527 9.23549 27.9145 9.23549C28.5843 9.23549 29.1504 9.37983 29.6686 9.74068C30.1789 10.0935 30.5856 10.5426 30.9444 11.1199C31.3032 11.7374 31.5583 12.403 31.7656 13.2209C31.9809 14.0389 32.0845 14.8648 32.0845 15.787L32.0845 16.0917C32.0845 17.0139 31.9809 17.9361 31.8294 18.754C31.6221 19.58 31.367 20.2937 31.0082 20.9191C30.6494 21.5286 30.1869 21.9857 29.6686 22.3465C29.1584 22.7074 28.5524 22.8597 27.8746 22.8597C27.2049 22.8597 26.5989 22.6993 26.0807 22.3465C25.5624 21.9857 25.0999 21.5286 24.7411 20.9031C24.3744 20.2937 24.1192 19.58 23.9119 18.754C23.7126 17.9361 23.6568 17.0139 23.6568 16.0917C23.7126 15.2096 23.8162 14.2955 23.9757 13.4775L23.9677 13.4695Z" clip-rule="evenodd" fill="#FFFFFF" fill-opacity="1.000000" fill-rule="evenodd"/>
</svg>
