<svg width="20.000000" height="20.000000" viewBox="0 0 20 20" fill="none" xmlns="http://www.w3.org/2000/svg" xmlns:xlink="http://www.w3.org/1999/xlink">
	<desc>
			Created with Pixso.
	</desc>
	<defs/>
	<path id="Oval" d="M20 10C20 15.5228 15.5228 20 10 20C4.47716 20 0 15.5228 0 10C0 4.47717 4.47716 0 10 0C15.5228 0 20 4.47717 20 10ZM17.7981 8.19897Q18 9.07623 18 10Q18 10.9237 17.7981 11.8009Q17.644 12.4706 17.3721 13.1133Q17.092 13.7757 16.7051 14.3684Q16.2536 15.0601 15.6569 15.6569Q15.06 16.2537 14.3683 16.7052Q13.7757 17.092 13.1133 17.3721Q12.4707 17.644 11.801 17.7981Q10.9237 18 10 18Q9.07632 18 8.19911 17.7981Q7.52934 17.644 6.88666 17.3721Q6.22429 17.092 5.63159 16.7051Q4.93994 16.2537 4.34314 15.6569Q3.74634 15.0601 3.29486 14.3683Q2.908 13.7757 2.62785 13.1133Q2.35603 12.4706 2.20189 11.8009Q2 10.9237 2 10Q2 9.07629 2.20189 8.1991Q2.35603 7.52936 2.62785 6.88666Q2.90802 6.2243 3.29489 5.63159Q3.74635 4.93994 4.34314 4.34314Q4.93996 3.74634 5.63165 3.29486Q6.22432 2.90802 6.88666 2.62787Q7.52933 2.35602 8.1991 2.2019Q9.07631 2 10 2Q10.9237 2 11.8009 2.2019Q12.4707 2.35602 13.1133 2.62787Q13.7757 2.90802 14.3685 3.29492Q15.0601 3.7464 15.6569 4.34314Q16.2537 4.94 16.7052 5.63171Q17.092 6.22437 17.3721 6.88666Q17.644 7.5293 17.7981 8.19897Z" fill="#FFFFFF" fill-opacity="1.000000" fill-rule="evenodd"/>
</svg>
