<?xml version="1.0" standalone="no"?>
<!DOCTYPE svg PUBLIC "-//W3C//DTD SVG 20010904//EN"
 "http://www.w3.org/TR/2001/REC-SVG-20010904/DTD/svg10.dtd">
<svg version="1.0" xmlns="http://www.w3.org/2000/svg"
 width="264.000000pt" height="264.000000pt" viewBox="0 0 264.000000 264.000000"
 preserveAspectRatio="xMidYMid meet">
<metadata>
Created by potrace 1.14, written by Peter Selinger 2001-2017
</metadata>
<g transform="translate(0.000000,264.000000) scale(0.100000,-0.100000)"
fill="#000000" stroke="none">
<path d="M1251 2558 c1 -7 1 -38 0 -69 l-1 -56 -30 5 c-28 4 -30 2 -30 -28 0
-30 -1 -31 -35 -27 -19 3 -35 1 -35 -5 0 -5 -5 -6 -11 -3 -13 9 -8 -27 6 -38
6 -5 4 -7 -5 -4 -8 2 -16 9 -16 15 -1 7 -2 17 -3 22 0 6 -8 10 -17 10 -14 0
-14 -3 -4 -15 11 -13 10 -14 -4 -9 -14 5 -15 3 -6 -20 l10 -26 -83 -1 c-45 -1
-86 -1 -90 0 -5 1 -6 -3 -2 -9 3 -6 10 -8 15 -5 15 9 23 -16 10 -28 -10 -9
-11 -9 -6 3 4 8 -1 6 -11 -5 -22 -24 -20 -23 -111 -26 -39 -1 -69 -5 -67 -9 3
-5 -2 -10 -10 -14 -8 -3 -17 -1 -20 4 -3 4 1 10 7 13 7 2 -1 4 -17 3 -25 0
-31 -5 -31 -22 0 -22 27 -27 54 -10 15 9 27 2 18 -12 -8 -13 -101 -9 -99 4 1
6 -5 11 -12 11 -11 0 -12 -4 -4 -14 9 -10 8 -13 -4 -13 -8 0 -17 9 -20 20 -3
11 -1 20 5 20 5 0 6 4 3 10 -9 15 -135 9 -135 -6 0 -7 8 -18 18 -24 16 -11 16
-11 -1 -6 -16 5 -18 0 -16 -48 2 -52 25 -89 57 -92 7 -1 26 -2 43 -2 28 -2 30
-4 27 -34 -3 -36 -7 -35 82 -37 l60 -1 0 -178 c0 -129 -3 -182 -12 -191 -10
-11 -10 -13 0 -7 7 4 12 1 12 -8 0 -11 -7 -15 -22 -12 -36 6 -56 -10 -51 -39
5 -24 3 -25 -38 -26 -24 -1 -48 -1 -52 0 -5 1 -6 -3 -2 -9 3 -5 1 -10 -4 -10
-6 0 -11 4 -11 8 0 5 -7 9 -14 9 -11 0 -13 -5 -5 -19 5 -10 8 -22 5 -27 -3 -4
5 -8 17 -7 13 1 22 7 22 18 0 9 4 20 8 24 4 4 7 -6 5 -22 l-2 -31 -96 1 -95 1
2 32 c1 31 -8 36 -36 19 -10 -6 -12 -5 -7 2 5 8 -5 12 -34 12 -30 0 -39 -3
-34 -12 5 -9 2 -9 -9 1 -14 11 -17 11 -17 -1 0 -8 6 -20 12 -27 11 -11 10 -12
0 -6 -11 5 -13 -9 -10 -71 3 -76 4 -79 28 -79 19 0 25 5 25 24 0 16 -6 25 -18
27 -33 5 -32 15 0 12 26 -2 30 -6 28 -26 -1 -13 4 -29 11 -37 8 -7 10 -15 6
-18 -4 -2 0 -2 8 1 51 15 50 16 50 -22 l0 -36 65 0 65 0 0 -194 -1 -194 -27 1
c-24 0 -25 0 -7 13 10 8 14 14 8 14 -20 0 -43 -37 -43 -68 0 -29 -3 -32 -32
-33 -18 -1 -37 -1 -42 0 -4 1 -14 -4 -22 -10 -11 -9 -14 -9 -14 0 0 7 -5 9
-11 5 -6 -3 -9 -17 -6 -31 4 -24 4 -24 -67 -21 -70 3 -71 3 -70 30 1 27 1 27
-62 26 l-64 -2 0 -67 0 -67 30 3 c29 2 30 1 26 -31 -2 -19 0 -34 3 -35 3 -1
20 -2 36 -3 27 -1 32 -6 27 -34 -1 -5 -9 -9 -18 -9 -10 0 -14 7 -11 19 3 10 1
16 -4 12 -5 -3 -9 -12 -9 -20 0 -9 -5 -12 -12 -8 -8 4 -10 3 -5 -2 9 -9 23
-11 132 -13 l65 -1 0 -230 0 -230 990 0 990 0 0 230 0 230 65 0 c47 0 65 4 64
13 -4 36 2 48 24 45 12 -2 27 -7 33 -10 11 -7 14 6 14 54 0 25 3 27 30 24 l30
-3 0 68 0 69 -65 -1 c-65 -2 -65 -2 -65 -31 l0 -29 -98 3 c-94 3 -98 4 -98 25
0 15 3 19 11 13 7 -6 16 -6 20 -2 5 4 5 0 0 -8 -5 -8 -5 -12 0 -8 4 4 13 4 20
-2 8 -6 11 -2 11 15 0 14 -4 25 -8 25 -4 0 -8 -5 -8 -11 0 -8 -4 -8 -12 -1
-15 12 -16 12 -63 12 -33 0 -35 2 -35 35 0 35 -11 42 -57 36 -8 -1 -12 50 -13
194 l-1 195 49 0 c26 0 54 6 61 13 11 10 13 10 7 -1 -4 -6 -2 -12 3 -12 10 0
12 7 15 50 1 9 13 16 29 18 26 3 35 -14 14 -29 -5 -3 -2 -9 6 -12 11 -4 15 0
12 13 -2 11 4 24 13 30 10 5 12 10 5 10 -7 0 -13 8 -13 17 0 13 3 14 11 6 6
-6 19 -9 28 -5 13 5 14 3 4 -9 -10 -13 -10 -16 2 -16 8 0 13 3 10 5 -3 3 0 11
6 18 16 20 2 33 -31 29 -17 -2 -30 0 -30 5 0 6 3 9 8 9 4 -1 19 -1 34 0 27 1
27 2 27 66 l-1 64 -69 0 c-65 0 -69 -2 -69 -23 0 -12 5 -27 11 -33 8 -8 -16
-11 -93 -11 l-105 1 0 29 c0 35 -15 47 -49 40 -21 -4 -24 -1 -24 27 0 31 -12
38 -57 32 -7 -1 -13 6 -13 17 0 10 6 24 13 31 10 11 10 13 0 7 -10 -6 -13 31
-13 168 l0 176 69 0 c42 0 73 5 77 12 5 7 3 8 -6 3 -10 -6 -11 -4 -4 6 5 8 7
22 5 33 -1 11 2 16 8 11 6 -3 8 -11 5 -17 -5 -7 -2 -8 6 -3 10 6 12 4 6 -11
-6 -15 -5 -16 5 -7 10 10 9 16 -1 28 -18 21 -6 30 14 10 15 -15 16 -15 17 7 1
13 1 27 0 31 -1 5 3 6 9 2 5 -3 10 -2 10 4 0 5 -6 11 -12 14 -7 2 0 4 15 4 19
0 25 -3 19 -9 -6 -6 -8 -17 -5 -26 4 -10 2 -13 -5 -8 -6 3 -13 2 -17 -3 -3 -6
3 -8 15 -6 28 5 40 14 39 28 0 9 -2 8 -6 -1 -2 -6 -9 -9 -15 -6 -5 4 -3 13 7
24 12 14 15 33 13 77 l-4 58 -65 3 -66 3 5 -30 4 -30 -71 2 c-39 1 -71 5 -71
10 0 4 0 12 0 17 0 6 5 10 11 10 8 0 8 -4 0 -14 -10 -11 -9 -14 3 -12 9 1 19
5 22 9 4 4 12 7 18 7 6 0 4 -5 -4 -11 -12 -8 -12 -10 -1 -7 17 5 23 35 9 45
-6 3 -8 1 -5 -4 4 -6 0 -13 -8 -17 -8 -3 -17 -1 -20 4 -3 4 1 10 7 13 7 2 -16
4 -52 5 -154 4 -193 12 -160 32 10 7 11 10 3 10 -7 0 -13 7 -13 15 0 8 -3 14
-7 14 -36 -6 -133 3 -128 11 3 6 1 10 -5 10 -6 0 -8 10 -4 24 5 20 2 24 -18
24 -98 0 -108 3 -108 31 0 22 -5 27 -27 29 -14 1 -28 3 -29 5 -2 1 -4 30 -5
65 l-2 62 -39 0 c-28 0 -37 -3 -32 -12 6 -10 4 -10 -7 0 -7 6 -24 12 -36 12
-13 0 -23 -6 -22 -12z m39 -18 c0 -5 -5 -10 -11 -10 -5 0 -7 5 -4 10 3 6 8 10
11 10 2 0 4 -4 4 -10z m61 -17 c13 -16 12 -17 -3 -4 -10 7 -18 15 -18 17 0 8
8 3 21 -13z m-117 -101 c3 -5 -1 -9 -9 -9 -8 0 -12 4 -9 9 3 4 7 8 9 8 2 0 6
-4 9 -8z m311 -70 c-3 -3 -11 0 -18 7 -9 10 -8 11 6 5 10 -3 15 -9 12 -12z
m-454 -29 c13 -16 12 -17 -3 -4 -17 13 -22 21 -14 21 2 0 10 -8 17 -17z m443
1 c3 -8 2 -12 -4 -9 -6 3 -10 10 -10 16 0 14 7 11 14 -7z m30 0 c3 -8 2 -12
-4 -9 -6 3 -10 10 -10 16 0 14 7 11 14 -7z m122 -39 c-1 -8 -8 -21 -16 -28
-10 -10 -11 -9 -4 3 5 8 9 18 10 23 3 14 4 17 8 17 2 0 3 -7 2 -15z m-702 -23
c3 -5 -1 -9 -9 -9 -8 0 -12 4 -9 9 3 4 7 8 9 8 2 0 6 -4 9 -8z m-54 -18 c0 -2
-7 -4 -15 -4 -8 0 -15 4 -15 10 0 5 7 7 15 4 8 -4 15 -8 15 -10z m-241 -28
c11 -14 6 -15 -27 -7 -4 1 8 21 12 21 2 0 9 -6 15 -14z m-154 -16 c-3 -5 -12
-10 -18 -10 -7 0 -6 4 3 10 19 12 23 12 15 0z m-8 -112 c2 -21 -15 -23 -39 -4
-21 15 -13 26 16 24 13 -1 23 -9 23 -20z m103 -64 c0 -8 -19 -13 -24 -6 -3 5
1 9 9 9 8 0 15 -2 15 -3z m1400 -18 c0 -2 -7 -7 -16 -10 -8 -3 -12 -2 -9 4 6
10 25 14 25 6z m-1696 -504 c2 -4 -4 -8 -14 -8 -10 0 -16 4 -14 8 3 4 9 8 14
8 5 0 11 -4 14 -8z m2032 -7 c-1 -8 -5 -17 -8 -21 -5 -4 -4 16 1 34 3 9 9 -1
7 -13z m-1796 -16 c0 -14 -17 -10 -23 5 -4 10 -1 13 9 9 7 -3 14 -9 14 -14z
m-195 -19 c3 -6 -1 -7 -9 -4 -18 7 -21 14 -7 14 6 0 13 -4 16 -10z m-68 -111
c-1 -10 -9 -17 -19 -16 -20 1 -25 17 -5 17 8 0 7 3 -3 10 -12 7 -10 9 7 7 14
-1 21 -7 20 -18z m2043 17 c0 -3 -4 -8 -10 -11 -5 -3 -10 -1 -10 4 0 6 5 11
10 11 6 0 10 -2 10 -4z m-1953 -616 c-1 -11 -5 -20 -10 -20 -5 0 -6 10 -3 23
3 12 3 16 0 9 -3 -6 -10 -10 -15 -7 -5 4 -6 -1 -3 -9 3 -9 1 -16 -5 -16 -6 0
-11 2 -11 4 0 2 -3 12 -7 22 -4 10 -2 15 3 11 6 -3 16 -2 24 3 19 12 29 4 27
-20z m-253 8 c-3 -4 -11 -5 -19 -1 -21 7 -19 12 4 10 11 0 18 -5 15 -9z m2391
-18 c3 -6 -1 -7 -9 -4 -18 7 -21 14 -7 14 6 0 13 -4 16 -10z"/>
<path d="M864 2295 c-3 -8 -4 -20 -2 -27 3 -7 7 -1 10 15 6 29 1 36 -8 12z"/>
<path d="M1730 2301 c0 -5 7 -12 16 -15 14 -5 15 -4 4 9 -14 17 -20 19 -20 6z"/>
<path d="M1772 2280 c0 -14 2 -19 5 -12 2 6 2 18 0 25 -3 6 -5 1 -5 -13z"/>
<path d="M2016 2198 c3 -5 10 -6 15 -3 13 9 11 12 -6 12 -8 0 -12 -4 -9 -9z"/>
<path d="M467 2059 c7 -7 15 -10 18 -7 3 3 -2 9 -12 12 -14 6 -15 5 -6 -5z"/>
<path d="M535 2031 c-4 -7 0 -8 10 -4 10 3 21 0 27 -8 8 -12 9 -11 5 1 -5 18
-33 25 -42 11z"/>
<path d="M535 2000 c-3 -6 1 -7 9 -4 18 7 21 14 7 14 -6 0 -13 -4 -16 -10z"/>
<path d="M1945 1639 c-4 -6 -4 -13 -1 -16 3 -4 6 -1 6 6 0 7 5 9 12 5 7 -4 8
-3 4 4 -9 15 -13 15 -21 1z"/>
<path d="M676 1631 c-3 -5 1 -11 9 -14 9 -4 12 -1 8 9 -6 16 -10 17 -17 5z"/>
<path d="M2065 1490 c0 -19 5 -26 19 -25 24 2 41 31 24 41 -27 17 -44 11 -43
-16z m39 -5 c-5 -11 -9 -12 -19 -2 -9 8 -10 14 -2 19 16 9 27 0 21 -17z"/>
<path d="M375 1300 c3 -5 8 -10 11 -10 2 0 4 5 4 10 0 6 -5 10 -11 10 -5 0 -7
-4 -4 -10z"/>
<path d="M2260 1299 c0 -5 5 -7 10 -4 6 3 10 8 10 11 0 2 -4 4 -10 4 -5 0 -10
-5 -10 -11z"/>
<path d="M350 1274 c0 -9 -5 -12 -12 -8 -7 4 -8 3 -4 -4 10 -16 14 -15 26 8 7
14 7 20 0 20 -5 0 -10 -7 -10 -16z"/>
<path d="M377 1273 c-4 -3 -7 -11 -7 -17 0 -6 5 -5 12 2 6 6 9 14 7 17 -3 3
-9 2 -12 -2z"/>
<path d="M2257 1273 c-4 -3 -7 -11 -7 -17 0 -6 5 -5 12 2 6 6 9 14 7 17 -3 3
-9 2 -12 -2z"/>
<path d="M2154 894 c3 -9 6 -18 6 -20 0 -2 5 -4 11 -4 8 0 9 4 0 13 -6 8 -8
17 -4 20 3 4 1 7 -6 7 -8 0 -11 -6 -7 -16z"/>
<path d="M104 642 c6 -9 2 -12 -10 -10 -13 2 -19 -3 -19 -16 0 -11 8 -20 18
-22 9 -1 15 2 11 7 -3 5 -1 9 5 9 11 0 9 26 -4 37 -4 4 -5 2 -1 -5z m-9 -21
c3 -5 2 -12 -3 -15 -5 -3 -9 1 -9 9 0 17 3 19 12 6z"/>
<path d="M2521 645 c0 -5 6 -21 14 -35 8 -14 14 -19 15 -12 0 7 4 11 9 8 5 -4
4 5 -2 18 -7 14 -15 20 -18 14 -4 -6 -9 -5 -12 3 -3 8 -6 10 -6 4z"/>
<path d="M2446 564 c-5 -14 -4 -15 9 -4 17 14 19 20 6 20 -5 0 -12 -7 -15 -16z"/>
<path d="M2467 554 c-10 -13 -14 -24 -10 -24 9 0 36 40 31 45 -2 2 -11 -8 -21
-21z"/>
<path d="M2490 539 c0 -5 5 -7 10 -4 6 3 10 8 10 11 0 2 -4 4 -10 4 -5 0 -10
-5 -10 -11z"/>
</g>
</svg>
